<?xml version="1.0" encoding="utf-8"?>
<!-- Generator: Adobe Illustrator 24.2.1, SVG Export Plug-In . SVG Version: 6.00 Build 0)  -->
<svg version="1.1" id="Camada_1" xmlns="http://www.w3.org/2000/svg" xmlns:xlink="http://www.w3.org/1999/xlink" x="0px" y="0px"
	 viewBox="0 0 640 512" style="enable-background:new 0 0 640 512;" xml:space="preserve">
<style type="text/css">
	.st0{fill:#DC3545;}
	.st1{opacity:0.4;fill:#494F65;enable-background:new    ;}
</style>
<path class="st0" d="M496,64c-44.1,0-79.1,35.9-79.1,80v224c0,44.1,35.9,80,79.1,80s79.1-35.9,79.1-80V144C576,99.9,540.1,64,496,64
	z M512,368c0,8.8-7.2,16-16,16s-16-7.2-16-16V144c0-8.8,7.2-16,16-16s16,7.2,16,16V368z M304,192c-5.2,0-10.2,0.6-15.2,1.5
	c2.1-29.4,18.8-55.6,45.5-68.9c15.8-7.9,22.2-27.1,14.3-42.9c-7.9-15.8-27.2-22.2-42.9-14.3C255.3,92.6,224,143.2,224,199.5V368
	c0,44.1,35.9,80,79.1,80s79.1-35.9,79.1-80l0-96C384,227.9,348.1,192,304,192z M320,368c0,8.8-7.2,16-16,16s-16-7.2-16-16v-96
	c0-8.8,7.2-16,16-16s16,7.2,16,16V368z M118.2,197.6l52.9-84.7c6.2-9.8,6.5-22.3,0.9-32.5C166.3,70.3,155.6,64,144,64H32
	C14.3,64,0,78.3,0,96s14.3,32,32,32h54.3l-49.4,79c-6.2,9.9-6.5,22.3-0.9,32.5c5.7,10.2,16.4,16.5,28,16.5h19.8
	c24.4,0,44.2,19.8,44.2,44.2v39.6c0,24.4-19.8,44.2-44.2,44.2c-9.9,0-18.8-5.5-23.2-14.3c-7.9-15.8-27.1-22.3-42.9-14.3
	c-15.8,7.9-22.2,27.1-14.3,42.9C18.7,428.1,49.5,448,83.8,448c59.6,0,108.2-48.5,108.2-108.2v-39.6C192,252.6,161.1,212,118.2,197.6
	z"/>
<path class="st1" d="M608,0c-17.7,0-31.1,14.3-31.1,32s14.3,32,31.1,32s32-14.3,32-32S625.7,0,608,0z"/>
</svg>
