<?xml version="1.0" encoding="utf-8"?>
<!-- Generator: Adobe Illustrator 24.2.1, SVG Export Plug-In . SVG Version: 6.00 Build 0)  -->
<svg version="1.1" id="Camada_1" xmlns="http://www.w3.org/2000/svg" xmlns:xlink="http://www.w3.org/1999/xlink" x="0px" y="0px"
	 viewBox="0 0 448 512" style="enable-background:new 0 0 448 512;" xml:space="preserve">
<style type="text/css">
	.st0{fill:#38C8BF;}
	.st1{opacity:0.4;fill:#AFF9F2;enable-background:new    ;}
</style>
<path class="st0" d="M320,248c-13.3,0-24-10.8-24-24V120c0-39.7-32.3-72-72-72s-72,32.3-72,72v104c0,13.3-10.8,24-24,24
	s-24-10.7-24-24V120C104,53.8,157.8,0,224,0s120,53.8,120,120v104C344,237.3,333.3,248,320,248z"/>
<path class="st1" d="M448,192v240c0,44.2-35.8,80-80,80H80c-44.2,0-80-35.8-80-80V192c0-17.7,14.3-32,32-32h72v64
	c0,13.3,10.8,24,24,24s24-10.7,24-24v-64h144v64c0,13.3,10.8,24,24,24s24-10.7,24-24v-64h72C433.7,160,448,174.3,448,192z"/>
</svg>
