<?xml version="1.0" encoding="utf-8"?>
<!-- Generator: Adobe Illustrator 24.2.1, SVG Export Plug-In . SVG Version: 6.00 Build 0)  -->
<svg version="1.1" id="Camada_1" xmlns="http://www.w3.org/2000/svg" xmlns:xlink="http://www.w3.org/1999/xlink" x="0px" y="0px"
	 viewBox="0 0 576 512" style="enable-background:new 0 0 576 512;" xml:space="preserve">
<style type="text/css">
	.st0{fill:#38C8BF;}
	.st1{opacity:0.4;fill:#AFF9F2;enable-background:new    ;}
</style>
<path class="st0" d="M192,32h-32c-53.9,0-96,43-96,96v37.5c0,8.5-3.4,16.6-9.4,22.6L9.4,233.4c-12.5,12.5-12.5,32.8,0,45.3L54.7,324
	c6,6,9.4,14.1,9.4,22.6V384c0,53,43,96,96,96h32c17.7,0,32-14.3,32-32s-14.3-32-32-32h-32c-17.6,0-32-14.4-32-32v-37.5
	c0-25.5-10.1-49.9-28.1-67.9L77.3,256l22.6-22.6c18-18,28.1-42.5,28.1-67.9V128c0-17.6,14.4-32,32-32h32c17.7,0,32-14.3,32-32
	S209.7,32,192,32z"/>
<path class="st1" d="M566.6,233.4l-45.3-45.3c-5.9-6-9.3-15-9.3-22.6V128c0-53-43-96-96-96h-32c-17.7,0-32,14.3-32,31.1
	S366.3,96,383.1,96H416c17.6,0,32,14.4,32,32v37.5c0,25.4,10.1,49.9,28.1,67.9l22.7,22.6l-22.6,22.6c-18.1,18-28.2,42.4-28.2,67.9
	V384c0,17.6-14.4,32-32,32h-32c-17.7,0-32,14.3-32,31.1s14.3,32.9,31.1,32.9H416c53,0,96-43,96-96v-37.5c0-8.5,3.4-16.6,9.4-22.6
	l45.3-45.3C579.1,266.1,579.1,245.9,566.6,233.4z"/>
</svg>
