<?xml version="1.0" encoding="utf-8"?>
<!-- Generator: Adobe Illustrator 24.2.1, SVG Export Plug-In . SVG Version: 6.00 Build 0)  -->
<svg version="1.1" id="Camada_1" xmlns="http://www.w3.org/2000/svg" xmlns:xlink="http://www.w3.org/1999/xlink" x="0px" y="0px"
	 viewBox="0 0 512 512" style="enable-background:new 0 0 512 512;" xml:space="preserve">
<style type="text/css">
	.st0{fill:#38C8BF;}
	.st1{opacity:0.4;fill:#AFF9F2;enable-background:new    ;}
</style>
<path class="st0" d="M267.3,244.7c-4.1-4.1-10.1-5.6-15.7-4.1l-224,64c-6.5,1.9-11.2,7.6-11.6,13.5c-0.4,6.8,3.4,13.1,9.7,15.7
	l74.4,31.9L16,449.9c-12.5,12.5-12.5,32.8,0,45.3s32.8,12.5,45.3,0l84.1-84.1l31.9,74.4c2.5,6.8,8.3,10.6,14.7,10.6c0.3,0,0.7,0,1,0
	c6.8-0.4,12.5-5.1,14.4-11.6l64-224C272.1,254.8,271.4,248.8,267.3,244.7z"/>
<path class="st1" d="M336,256c0,34.1-21.4,63-51.4,74.5L265,399.1c75.2-4.8,135-66.8,135-143.1c0-79.4-64.6-144-144-144
	c-76.3,0-138.3,59.8-143.1,134.1l68.6-19.6c11.6-29.1,40.4-50.5,74.5-50.5C300.2,176,336,211.8,336,256z M256,0
	C114.8,0,0,114.8,0,256c0,9.3,0.6,18.5,1.5,27.6c5.1-4.2,10.7-7.8,17.3-9.7l45.4-13c0-1.7-0.3-3.3-0.3-4.9c0-106,86-192,192-192
	s192,86,192,192s-86,192-192,192c-1.6,0-3.2-0.2-4.9-0.2l-13,45.4c-1.9,6.6-5.5,12.2-9.8,17.3c9.1,0.9,18.3,1.5,27.6,1.5
	c141.2,0,256-114.8,256-256S397.2,0,256,0z"/>
</svg>
