<?xml version="1.0" encoding="utf-8"?>
<!-- Generator: Adobe Illustrator 24.2.1, SVG Export Plug-In . SVG Version: 6.00 Build 0)  -->
<svg version="1.1" id="Camada_1" xmlns="http://www.w3.org/2000/svg" xmlns:xlink="http://www.w3.org/1999/xlink" x="0px" y="0px"
	 viewBox="0 0 576 512" style="enable-background:new 0 0 576 512;" xml:space="preserve">
<style type="text/css">
	.st0{fill:#38C8BF;}
	.st1{opacity:0.4;fill:#AFF9F2;enable-background:new    ;}
</style>
<path class="st0" d="M176,416c-26.5,0-47.1,21.5-47.1,48s20.6,48,47.1,48s47.1-21.5,47.1-48S202.5,416,176,416z M276.6,180.6h38.9
	v38.9c-0.1,11.2,9.2,20.5,20.5,20.5s20.6-9.3,20.6-20.6v-38.8h38.9c11.3,0,20.6-9.3,20.6-20.6s-9.3-20.6-20.6-20.6h-38.9v-38.8
	c0-11.3-9.3-20.6-20.6-20.6s-20.6,9.3-20.6,20.6v38.8h-38.8c-11.3-0.1-20.6,9.3-20.6,20.6S265.3,180.6,276.6,180.6z M488,336H179.9
	L119.6,19.5C117.4,8.2,107.5,0,96,0H23.1C10.8,0,0,10.8,0,23.1S10.8,48,23.1,48h52.1l60.3,316.5c3.1,11.3,13,19.5,24.5,19.5h328
	c13.3,0,24-10.8,24-23.1C512,346.7,501.3,336,488,336z M463.1,416c-26.5,0-47.1,21.5-47.1,48s21.5,48,47.1,48s47.1-21.5,47.1-48
	S490.5,416,463.1,416z"/>
<path class="st1" d="M569.5,44.7c-6.1-8.1-15.4-12.7-26.4-12.7h-422l48.8,256h318.4c14.2,0,26.9-9.6,30.8-23.2L574,73.7
	C577.5,63,575.6,52.8,569.5,44.7z M395.4,180.6h-38.9v38.9c0.1,11.2-9.2,20.5-20.5,20.5s-20.6-9.3-20.6-20.6v-38.8h-38.8
	c-11.3,0-20.6-9.3-20.6-20.6s9.3-20.6,20.6-20.6h38.9v-38.8c0-11.3,9.3-20.6,20.6-20.6s20.6,9.3,20.6,20.6v38.8h38.9
	c11.2-0.1,20.5,9.3,20.5,20.6S406.7,180.6,395.4,180.6z"/>
</svg>
