<?xml version="1.0" encoding="utf-8"?>
<!-- Generator: Adobe Illustrator 24.2.1, SVG Export Plug-In . SVG Version: 6.00 Build 0)  -->
<svg version="1.1" id="Capa_1" xmlns="http://www.w3.org/2000/svg" xmlns:xlink="http://www.w3.org/1999/xlink" x="0px" y="0px"
	 viewBox="0 0 512 512" style="enable-background:new 0 0 512 512;" xml:space="preserve">
<style type="text/css">
	.st0{fill:#38C8BF;}
</style>
<g>
	<path class="st0" d="M435.5,165h-68.9c11.6-29.7-10.4-62-42.4-62c-31.9,0-54,32.2-42.4,62h-50.7c11.6-29.7-10.4-62-42.4-62
		c-31.9,0-54,32.2-42.4,62H76.5c-8.3,0-15,6.7-15,15v61c0,8.3,6.7,15,15,15h22.3L211,396.3V497c0,11.2,11.8,18.3,21.7,13.4l60.5-30
		c5.1-2.5,8.3-7.7,8.3-13.4v-70.1L414.2,256h21.3c8.3,0,15-6.7,15-15v-61C450.5,171.7,443.8,165,435.5,165L435.5,165z M324.3,133
		c8.5,0,15.5,7,15.5,15.5s-7,15.5-15.5,15.5s-15.5-7-15.5-15.5S315.7,133,324.3,133z M188.8,133c8.5,0,15.5,7,15.5,15.5
		s-7,15.5-15.5,15.5s-15.5-7-15.5-15.5S180.2,133,188.8,133z M91.5,195h329v31h-329V195z M241,472.8V406h30.5v51.7L241,472.8z
		 M279.8,376h-46.6l-96-120h238.6L279.8,376z"/>
	<path class="st0" d="M121,91c25.1,0,45.5-20.4,45.5-45.5S146.1,0,121,0S75.5,20.4,75.5,45.5S95.9,91,121,91z M121,30
		c8.5,0,15.5,7,15.5,15.5S129.5,61,121,61s-15.5-7-15.5-15.5S112.5,30,121,30z"/>
	<path class="st0" d="M392,91c25.1,0,45.5-20.4,45.5-45.5S417.1,0,392,0s-45.5,20.4-45.5,45.5S366.9,91,392,91z M392,30
		c8.5,0,15.5,7,15.5,15.5S400.5,61,392,61s-15.5-7-15.5-15.5S383.5,30,392,30z"/>
	<path class="st0" d="M256.5,91c25.1,0,45.5-20.4,45.5-45.5S281.6,0,256.5,0S211,20.4,211,45.5S231.4,91,256.5,91z M256.5,30
		c8.5,0,15.5,7,15.5,15.5S265,61,256.5,61S241,54,241,45.5S248,30,256.5,30z"/>
</g>
</svg>
