<?xml version="1.0" encoding="utf-8"?>
<!-- Generator: Adobe Illustrator 24.2.1, SVG Export Plug-In . SVG Version: 6.00 Build 0)  -->
<svg version="1.1" id="Camada_1" xmlns="http://www.w3.org/2000/svg" xmlns:xlink="http://www.w3.org/1999/xlink" x="0px" y="0px"
	 viewBox="0 0 448 512" style="enable-background:new 0 0 448 512;" xml:space="preserve">
<style type="text/css">
	.st0{fill:#38C8BF;}
</style>
<path class="st0" d="M323.5,51.3c-20.7,19.3-39.5,39.5-56.1,59.8C240.1,73.6,206.2,35.5,168,0C69.8,91.1,0,210,0,281.6
	C0,408.9,100.2,512,224,512s224-103.1,224-230.4C448,228.4,396,118.5,323.5,51.3z M224,464c-97,0-176-81.9-176-182.4
	c0-45.4,44.3-133.2,120.1-214.1c22.4,23.4,42.9,47.7,60.4,71.9l36.6,50.4l39.4-48.3c5.9-7.1,11.9-14.1,18-21
	C368.9,178,400,250.4,400,281.6C400,382.1,321,464,224,464z M313.5,243.1l-51.4,58.5c0,0-80.4-102.6-86.4-109.6
	c-42.6,50.9-63.8,80.6-63.8,114.4c0,67.9,51.4,109.6,114.5,109.6c25.3,0,48.6-7.9,67.6-21.1c43-30.1,53.1-88.6,29.3-134.3
	C320.4,255,317.1,249.1,313.5,243.1z"/>
</svg>
