<?xml version="1.0" encoding="utf-8"?>
<!-- Generator: Adobe Illustrator 24.2.1, SVG Export Plug-In . SVG Version: 6.00 Build 0)  -->
<svg version="1.1" id="Camada_1" xmlns="http://www.w3.org/2000/svg" xmlns:xlink="http://www.w3.org/1999/xlink" x="0px" y="0px"
	 viewBox="0 0 448 512" style="enable-background:new 0 0 448 512;" xml:space="preserve">
<style type="text/css">
	.st0{fill:#38C8BF;}
	.st1{opacity:0.4;fill:#AFF9F2;enable-background:new    ;}
</style>
<path class="st0" d="M416,127.1h-58.2l-10.7,64H416c17.7,0,32-14.3,32-31.1C448,142.3,433.7,127.1,416,127.1z M0,352
	c0,17.7,14.3,31.1,32,31.1h58.2l10.7-64H32C14.3,319.1,0,334.3,0,352z M384,319.1H165.8l-10.7,64H384c17.7,0,32-14.3,32-31.1
	C416,334.3,401.7,319.1,384,319.1z M64,191.1h218.2l10.7-64H64c-17.7,0-32,14.3-32,32C32,177.7,46.3,191.1,64,191.1z"/>
<path class="st1" d="M341.3,32.4c-17.5-2.9-33.9,8.9-36.8,26.3L260.9,320h64.9l41.8-250.7C370.5,51.8,358.7,35.3,341.3,32.4z
	 M240.4,442.7c-2.9,17.4,8.9,33.9,26.3,36.8c1.8,0.4,3.6,0.5,5.3,0.5c15.4,0,28.9-11.1,31.5-26.7L315,384h-64.9L240.4,442.7z
	 M80.4,442.7c-2.9,17.4,8.9,33.9,26.3,36.8c1.8,0.4,3.6,0.5,5.3,0.5c15.4,0,28.9-11.1,31.5-26.7l43.6-262.2h-64.9L80.4,442.7z
	 M181.3,32.4c-17.5-2.9-33.9,8.9-36.8,26.3l-11.6,68.4h64.9l9.8-58.7C210.5,51.8,198.7,35.3,181.3,32.4z"/>
</svg>
