<?xml version="1.0" encoding="utf-8"?>
<!-- Generator: Adobe Illustrator 24.2.1, SVG Export Plug-In . SVG Version: 6.00 Build 0)  -->
<svg version="1.1" id="Camada_1" xmlns="http://www.w3.org/2000/svg" xmlns:xlink="http://www.w3.org/1999/xlink" x="0px" y="0px"
	 viewBox="0 0 512 512" style="enable-background:new 0 0 512 512;" xml:space="preserve">
<style type="text/css">
	.st0{fill:#DC3545;}
	.st1{opacity:0.4;fill:#DC3545;enable-background:new    ;}
</style>
<path class="st0" d="M512,384c0-8.1-4.1-16.1-12.4-19.9l-58.1-26.4L279.9,411c-7.6,3.5-15.6,5.2-23.9,5.2s-16.2-1.7-23.9-5.2
	L70.5,337.8l-58.1,26.4C4.1,367.9,0,375.9,0,384s4.1,16.4,12.4,20.1l233,105.6c3.4,1.6,7,2.3,9.7,2.3s7.3-0.8,10.6-2.3l233-105.6
	C507.9,400.4,512,392.2,512,384z M488,56h-32V23.1C456,10.8,445.3,0,432,0s-24,10.8-24,23.1V56h-32c-13.3,0-24,10.8-24,23.1
	s10.7,24.9,23.1,24.9H408v31.1c0,14.2,10.7,24.9,24,24.9s24-10.8,24-23.1V104h32c13.3,0,24-10.8,24-23.1S501.3,56,488,56z"/>
<path class="st1" d="M512,256.1c0-9-4.1-16.1-12.4-19.8l-233-105.5c-3.3-1.6-7-2.4-10.6-2.4s-7.2,0.8-10.6,2.4l-233,105.5
	C4.1,240,0,247.1,0,256.1s4.1,16.4,12.4,20.2l233,105.6c3.4,1.6,7,2.2,10.6,2.2s7.3-0.6,10.6-2.2l233-105.6
	C507.9,272.5,512,264.2,512,256.1z"/>
</svg>
