<svg xmlns="http://www.w3.org/2000/svg" xmlns:xlink="http://www.w3.org/1999/xlink" viewBox="0 0 241.95 76.74"><defs><style>.cls-1{fill:url(#Gradiente_sem_nome_15);}.cls-2{fill:#002f3f;}</style><linearGradient id="Gradiente_sem_nome_15" y1="45.97" x2="67" y2="45.97" gradientUnits="userSpaceOnUse"><stop offset="0" stop-color="#85e5e5"/><stop offset="1" stop-color="#38c8bf"/></linearGradient></defs><g id="Camada_2" data-name="Camada 2"><g id="Camada_6_cópia_2_cópia_cópia_2_cópia_cópia" data-name="Camada 6 cópia 2 cópia cópia 2 cópia cópia"><path class="cls-1" d="M64.41,30.11a24.54,24.54,0,0,0-20.7-14.4c-3.74-.3-7.47-.3-11.07-.3-3.14,0-6.38,0-9.75-.2a7.2,7.2,0,0,0-.83,14.38c3.78.22,7.24.22,10.58.22s6.74,0,9.9.26a10.08,10.08,0,0,1,8.75,6A15.61,15.61,0,0,1,51,49.14a22.55,22.55,0,0,1-11.38,11,22.58,22.58,0,0,1-15.79,1.29,15.68,15.68,0,0,1-10-8.39A7.2,7.2,0,0,0,.64,59a29.86,29.86,0,0,0,19,16.23,35,35,0,0,0,10.18,1.49,38.12,38.12,0,0,0,15.72-3.45A36.93,36.93,0,0,0,64.1,55.09,29.84,29.84,0,0,0,64.41,30.11Z"/><path class="cls-2" d="M22.81,12.37l21.34.17a1.66,1.66,0,0,0,1.1-2.91L34.66.41a1.65,1.65,0,0,0-2.16,0l-10.74,9A1.67,1.67,0,0,0,22.81,12.37Z"/><path class="cls-2" d="M82.11,29.56l3.44-.33c.72-.06,1-.11,1.49-.11a1,1,0,0,1,1.11,1.11v1.61c1.72-1.72,4.49-2.72,8.43-2.72,8.54,0,13.64,5.6,13.64,14.14s-5.65,14-13.75,14c-3.66,0-6.43-1-8.32-3.38v14.2A1.78,1.78,0,0,1,86.21,70h-4a1.78,1.78,0,0,1-1.94-1.94V31.56A1.84,1.84,0,0,1,82.11,29.56Zm19.79,13.7c0-4.6-3.05-6.88-6.87-6.88a6.42,6.42,0,0,0-4.94,2,7.53,7.53,0,0,0-1.66,5A6.22,6.22,0,0,0,95,50C99,50,101.9,47.92,101.9,43.26Z"/><path class="cls-2" d="M129.51,29.12c8.6,0,14.92,6,14.92,14s-6.21,14.08-14.75,14.08c-8.32,0-15-5.54-15-14.08C114.65,34.83,121.36,29.12,129.51,29.12Zm.06,7.71a6.08,6.08,0,0,0-6.38,6.37c0,3.83,2.55,6.32,6.44,6.32s6.26-2.16,6.26-6.37C135.89,39.16,133.4,36.83,129.57,36.83Z"/><path class="cls-2" d="M150.64,24.85a1.73,1.73,0,0,1,1.88-1.94l4.11-.17a1.75,1.75,0,0,1,2,1.94v4.66h5.82a1.61,1.61,0,0,1,1.83,1.72c0,1.11-.05,2.11-.05,3.22a1.77,1.77,0,0,1-1.89,1.94l-5.71.22v9.7c0,2.5.83,3.88,2.94,3.88a13,13,0,0,0,2.55-.38,3.59,3.59,0,0,1,.72-.12c.83,0,1.33.5,1.61,1.45s.56,1.94.89,2.82a2.87,2.87,0,0,1,.16,1,1.52,1.52,0,0,1-1.27,1.55,28.26,28.26,0,0,1-7.21.94c-5.71,0-8.37-2.94-8.37-8.7v-12l-1.06.06a1.74,1.74,0,0,1-2-1.94V31.28a1.78,1.78,0,0,1,1.94-1.94h1.11Z"/><path class="cls-2" d="M187.79,31.12c-3.52,0-6.12.81-7.73,2.42l-1.7,1.71v-16c0-.83-.38-.83-.67-.83a8.8,8.8,0,0,0-1.26.1,26.21,26.21,0,0,1-3.17.29c-.55,0-.89.16-.89.94V55.68c0,.88.43,1,.89,1a22.47,22.47,0,0,1,3.14.26l.38,0a8.11,8.11,0,0,0,1,.09c.23,0,.61,0,.61-.83V52l1.78,2.26c1.62,2.05,4,3,7.54,3,7.62,0,12.75-5.21,12.75-13C200.43,36.15,195.58,31.12,187.79,31.12ZM186.23,52a7.21,7.21,0,0,1-7.59-7.6,8.43,8.43,0,0,1,1.9-5.64,7.46,7.46,0,0,1,5.69-2.35c4.79,0,7.88,3.09,7.88,7.88S191.17,52,186.23,52Z"/><path class="cls-2" d="M210.46,19.25a4,4,0,1,0,0,7.93,4.07,4.07,0,0,0,4-4A4,4,0,0,0,210.46,19.25Z"/><rect class="cls-2" x="207.19" y="31.34" width="6.15" height="25.56" rx="0.94"/><path class="cls-2" d="M222.16,57H241c.67,0,.94-.28.94-1V52.47c0-.83-.32-.89-.77-.89-3.5,0-7.05.05-10.84.17l-2.22.06,13.35-16a1.55,1.55,0,0,0,.43-1,2,2,0,0,0-.12-.63l-.71-2a1.12,1.12,0,0,0-1.28-.88H222.27c-.67,0-.94.27-.94.94v3.55c0,.82.32.88.77.88,3.53,0,6.71-.14,10-.44l2.47-.22L220.37,52.4a1.29,1.29,0,0,0-.43.9,3.15,3.15,0,0,0,.14.62l0,.16.75,2A1.18,1.18,0,0,0,222.16,57Z"/></g></g></svg>