<?xml version="1.0" encoding="utf-8"?>
<!-- Generator: Adobe Illustrator 24.2.1, SVG Export Plug-In . SVG Version: 6.00 Build 0)  -->
<svg version="1.1" id="Camada_1" xmlns="http://www.w3.org/2000/svg" xmlns:xlink="http://www.w3.org/1999/xlink" x="0px" y="0px"
	 viewBox="0 0 512 512" style="enable-background:new 0 0 512 512;" xml:space="preserve">
<style type="text/css">
	.st0{fill:#38C8BF;}
	.st1{opacity:0.4;fill:#AFF9F2;enable-background:new    ;}
</style>
<path class="st0" d="M505.2,19.7C504,14,497.9,8,492.2,6.8C460.4,0,435.4,0,410.4,0C332.1,0,278.8,31.1,237,77.3
	c-27.4,30.4-14.4,17.8-127.7,210.7c63.3,0,114.7,51.3,114.7,114.6c192.9-113.5,180.1-100.4,210.5-127.9
	c46.2-41.8,77.4-96,77.4-172.1C512.1,76.6,512.1,51.5,505.2,19.7z M383.1,168c-22,0-39.1-17.9-39.1-40s18.1-40,40.1-40
	c22.1,0,39,17.9,39,40S406.1,168,383.1,168z M75.9,394.8c-8.6,8.5-12.9,30.1-11.6,53c22.1,1.3,44.5-3.1,53.1-11.6
	c13.4-13.5,14.3-31.4,1.1-43.5C107.2,380.4,89.4,381.3,75.9,394.8z"/>
<path class="st1" d="M52,154.5L2.7,253.2c-1.5,3.4-2.4,7.1-2.6,10.8c0,13.3,10.8,24,24,24h85.2c46.6-79.4,72.2-124.5,87.5-151.5
	c1.5-2.8,2.8-5.7,4.3-8.5H94.9C78.6,128,59.3,139.9,52,154.5z M375.5,314.9c-26.9,15.4-72,41-151.5,87.8V488c0,13.3,10.8,24,23.1,24
	c3.8-0.1,7.4-1,10.8-2.5l98.7-49.4c14.6-7.4,26.5-26.5,26.5-42.8V310.5C381.2,312.1,378.3,313.3,375.5,314.9z M35.6,352.1
	C9.9,377.9-3,442.6,1.5,511.4c69.1,3.6,133.6-9.4,159.4-35.1c40.3-40.3,42.9-93.9,6.3-130.5C129.6,309.3,75.1,311.8,35.6,352.1z
	 M117.4,436.1c-8.6,8.5-30.1,12.9-53.1,11.6c-1.3-22.9,2.1-44.5,11.6-53c13.5-13.5,31.4-14.4,43.5-2.1
	C131.6,404.8,130.7,422.6,117.4,436.1z"/>
</svg>
